<svg width="636" height="652" viewBox="0 0 636 652" fill="none" xmlns="http://www.w3.org/2000/svg">
<path d="M210 1C325.98 1 420 95.0202 420 211C420 260.063 403.173 305.196 374.978 340.944L421.945 387.913L422.301 388.285C422.429 388.427 422.55 388.573 422.668 388.72C437.375 377.357 458.586 378.42 472.076 391.91L624.104 543.938C638.749 558.582 638.749 582.326 624.104 596.971L580.971 640.104C566.326 654.749 542.582 654.749 527.938 640.104L375.91 488.076C363.446 475.612 361.592 456.56 370.344 442.133C369.977 441.882 369.623 441.606 369.285 441.301L368.913 440.945L321.071 393.104L320.716 392.731C320.078 392.026 319.56 391.251 319.159 390.434C287.35 409.826 249.98 421 210 421C94.0202 421 0 326.98 0 211C0 95.0202 94.0202 1 210 1ZM461.47 402.517C452.683 393.73 438.437 393.73 429.65 402.517L386.517 445.65C377.73 454.437 377.73 468.683 386.517 477.47L538.545 629.498C547.332 638.284 561.578 638.285 570.364 629.498L613.498 586.364C622.285 577.578 622.284 563.332 613.498 554.545L461.47 402.517ZM368.571 348.681C357.958 360.894 345.957 371.87 332.813 381.361L328.143 386.033L375.983 433.875L414.875 394.983L368.571 348.681ZM210 16C102.304 16 15 103.304 15 211C15 318.696 102.304 406 210 406C317.696 406 405 318.696 405 211C405 103.304 317.696 16 210 16Z" fill="url(#paint0_linear_0_1)"/>
<path d="M601.244 80.5654L579.669 51.9951L264.52 289.985L257.556 280.764L186.698 190.132L80.0605 270.954L71 259L189.749 169L198.81 180.954L198.655 181.07L267.406 269.008L570.629 40.0254L549.054 11.4551L635 0.8125L601.244 80.5654Z" fill="url(#paint1_linear_0_1)"/>
<defs>
<linearGradient id="paint0_linear_0_1" x1="1.07438e-10" y1="326.035" x2="635.088" y2="326.053" gradientUnits="userSpaceOnUse">
<stop stop-color="#00D0FF"/>
<stop offset="0.5" stop-color="#9900D5"/>
<stop offset="1" stop-color="#E00307"/>
</linearGradient>
<linearGradient id="paint1_linear_0_1" x1="630" y1="0.999996" x2="-6" y2="0.999996" gradientUnits="userSpaceOnUse">
<stop stop-color="#E00307"/>
<stop offset="0.5" stop-color="#9900D5"/>
<stop offset="1" stop-color="#00D0FF"/>
</linearGradient>
</defs>
</svg>
