<svg width="621" height="638" viewBox="0 0 621 638" fill="none" xmlns="http://www.w3.org/2000/svg">
<rect x="367.033" y="332" width="87.6579" height="75" rx="10" transform="rotate(45 367.033 332)" fill="url(#paint0_linear_0_1)"/>
<circle cx="210" cy="210" r="210" fill="url(#paint1_linear_0_1)"/>
<rect x="438.56" y="370" width="275" height="121" rx="30" transform="rotate(45 438.56 370)" fill="url(#paint2_linear_0_1)"/>
<rect x="41.7697" y="249.553" width="149.687" height="25" transform="rotate(-36 41.7697 249.553)" fill="#FDC200"/>
<rect x="239.484" y="250.008" width="334.908" height="25" transform="rotate(-36 239.484 250.008)" fill="#FDC200"/>
<rect x="243.716" y="278.142" width="141.598" height="25" transform="rotate(-126.444 243.716 278.142)" fill="#FDC200"/>
<path d="M580.497 17.2137L547.07 108.386L483.5 21.8366L580.497 17.2137Z" fill="#FDC200"/>
<defs>
<linearGradient id="paint0_linear_0_1" x1="140.028" y1="600.017" x2="561.464" y2="177.167" gradientUnits="userSpaceOnUse">
<stop stop-color="#00D0FF"/>
<stop offset="0.484125" stop-color="#9900D5"/>
<stop offset="1" stop-color="#E00307"/>
</linearGradient>
<linearGradient id="paint1_linear_0_1" x1="3.26016e-09" y1="209.878" x2="632" y2="210" gradientUnits="userSpaceOnUse">
<stop stop-color="#00D0FF"/>
<stop offset="0.5" stop-color="#9900D5"/>
<stop offset="1" stop-color="#E00307"/>
</linearGradient>
<linearGradient id="paint2_linear_0_1" x1="675.045" y1="331.505" x2="198.231" y2="346.411" gradientUnits="userSpaceOnUse">
<stop stop-color="#E00307"/>
<stop offset="0.673356" stop-color="#9900D5"/>
<stop offset="1" stop-color="#00D0FF"/>
</linearGradient>
</defs>
</svg>
