<svg width="635" height="652" viewBox="0 0 635 652" fill="none" xmlns="http://www.w3.org/2000/svg">
<rect x="367.033" y="333" width="87.6579" height="75" rx="10" transform="rotate(45 367.033 333)" fill="url(#paint0_linear_2001_2)"/>
<circle cx="210" cy="211" r="210" fill="url(#paint1_linear_2001_2)"/>
<path d="M601.244 80.5654L579.669 51.9951L264.52 289.985L257.556 280.764L186.698 190.132L80.0605 270.954L71 259L189.749 169L198.81 180.954L198.655 181.07L267.406 269.008L570.629 40.0254L549.054 11.4551L635 0.8125L601.244 80.5654Z" fill="#FFCC00"/>
<rect x="438.56" y="371" width="275" height="121" rx="30" transform="rotate(45 438.56 371)" fill="url(#paint2_linear_2001_2)"/>
<defs>
<linearGradient id="paint0_linear_2001_2" x1="140.028" y1="601.017" x2="561.464" y2="178.167" gradientUnits="userSpaceOnUse">
<stop stop-color="#00D0FF"/>
<stop offset="0.484125" stop-color="#9900D5"/>
<stop offset="1" stop-color="#E00307"/>
</linearGradient>
<linearGradient id="paint1_linear_2001_2" x1="3.26016e-09" y1="210.878" x2="632" y2="211" gradientUnits="userSpaceOnUse">
<stop stop-color="#00D0FF"/>
<stop offset="0.5" stop-color="#9900D5"/>
<stop offset="1" stop-color="#E00307"/>
</linearGradient>
<linearGradient id="paint2_linear_2001_2" x1="675.045" y1="332.505" x2="198.231" y2="347.411" gradientUnits="userSpaceOnUse">
<stop stop-color="#E00307"/>
<stop offset="0.673356" stop-color="#9900D5"/>
<stop offset="1" stop-color="#00D0FF"/>
</linearGradient>
</defs>
</svg>
