<svg width="1476" height="311" viewBox="0 0 1476 311" fill="none" xmlns="http://www.w3.org/2000/svg">
<path d="M0 0H1460V311H0V0Z" fill="#F9ED69"/>
<path d="M271.935 69.544L262.945 57.8856L131.633 155L128.732 151.237L99.2075 114.254L54.7752 147.234L51 142.356L100.479 105.631L104.254 110.509L104.19 110.556L132.836 146.44L259.179 53.0013L250.189 41.3428L286 37L271.935 69.544Z" fill="url(#paint0_linear_6_2)"/>
<path d="M106.738 50C147.462 50 180.476 82.3964 180.476 122.359C180.476 139.265 174.567 154.816 164.667 167.134L181.159 183.318L181.284 183.446C181.329 183.495 181.371 183.546 181.413 183.596C186.577 179.681 194.024 180.047 198.761 184.695L252.143 237.08C257.286 242.125 257.286 250.307 252.143 255.353L236.998 270.215C231.856 275.262 223.518 275.262 218.376 270.215L164.994 217.831C160.618 213.537 159.967 206.972 163.04 202.001C162.911 201.914 162.787 201.819 162.668 201.714L162.537 201.591L145.738 185.107L145.614 184.978C145.39 184.735 145.208 184.468 145.067 184.187C133.898 190.869 120.776 194.719 106.738 194.719C66.0136 194.719 33 162.323 33 122.359C33 82.3964 66.0136 50 106.738 50ZM195.037 188.35C191.952 185.323 186.95 185.323 183.864 188.35L168.719 203.213C165.633 206.24 165.633 211.149 168.719 214.177L222.101 266.561C225.186 269.588 230.188 269.589 233.273 266.561L248.419 251.698C251.505 248.671 251.504 243.762 248.419 240.734L195.037 188.35ZM162.417 169.8C158.691 174.008 154.477 177.79 149.861 181.061L148.222 182.67L165.02 199.155L178.676 185.754L162.417 169.8ZM106.738 55.1685C68.9223 55.1685 38.267 85.2508 38.267 122.359C38.267 159.468 68.9223 189.55 106.738 189.55C144.553 189.55 175.209 159.468 175.209 122.359C175.209 85.2508 144.553 55.1685 106.738 55.1685Z" fill="url(#paint1_linear_6_2)" stroke="black" stroke-opacity="0.01"/>
<path d="M299.98 242C298.073 242 296.387 241.56 294.92 240.68C293.453 239.653 292.72 238.187 292.72 236.28V86.68C292.72 85.2133 293.233 83.9667 294.26 82.94C295.433 81.9133 296.973 81.3267 298.88 81.18H339.36C347.867 81.18 355.567 82.72 362.46 85.8C369.353 88.88 374.78 93.8667 378.74 100.76C382.7 107.507 384.68 116.527 384.68 127.82V130.02C384.68 141.46 382.627 150.627 378.52 157.52C374.56 164.267 369.06 169.253 362.02 172.48C355.127 175.56 347.427 177.1 338.92 177.1H307.24V236.28C307.24 238.187 306.433 239.653 304.82 240.68C303.353 241.56 301.74 242 299.98 242ZM307.24 164.34H338.92C348.747 164.34 356.373 161.627 361.8 156.2C367.373 150.627 370.16 142.12 370.16 130.68V128.26C370.16 116.673 367.373 108.167 361.8 102.74C356.373 97.3133 348.747 94.6 338.92 94.6H307.24V164.34ZM492.776 242.44C491.162 242.44 489.696 241.633 488.376 240.02C487.056 238.26 485.956 236.5 485.076 234.74L451.196 168.74H423.256V236.28C423.256 238.187 422.449 239.653 420.836 240.68C419.369 241.56 417.756 242 415.996 242C414.089 242 412.402 241.56 410.936 240.68C409.469 239.653 408.736 238.187 408.736 236.28V86.68C408.736 85.2133 409.249 83.9667 410.276 82.94C411.302 81.9133 412.622 81.3267 414.236 81.18H453.176C461.829 81.18 469.749 82.5 476.936 85.14C484.122 87.78 489.842 92.2533 494.096 98.56C498.496 104.867 500.696 113.52 500.696 124.52C500.696 133.613 499.156 141.093 496.076 146.96C493.142 152.827 489.036 157.373 483.756 160.6C478.622 163.68 472.829 165.807 466.376 166.98L500.256 232.1C500.696 232.54 500.916 233.053 500.916 233.64C501.062 234.08 501.136 234.52 501.136 234.96C501.136 236.133 500.696 237.307 499.816 238.48C499.082 239.653 498.056 240.607 496.736 241.34C495.416 242.073 494.096 242.44 492.776 242.44ZM423.256 156.2H453.176C463.002 156.2 470.922 153.853 476.936 149.16C483.096 144.32 486.176 136.4 486.176 125.4C486.176 114.253 483.096 106.333 476.936 101.64C470.922 96.9467 463.002 94.6 453.176 94.6H423.256V156.2ZM568.966 243.32C560.459 243.32 552.759 241.78 545.866 238.7C538.973 235.62 533.473 230.633 529.366 223.74C525.259 216.847 523.206 207.68 523.206 196.24V128.26C523.206 116.82 525.259 107.653 529.366 100.76C533.473 93.8667 538.899 88.88 545.646 85.8C552.539 82.72 560.313 81.18 568.966 81.18C577.619 81.18 585.393 82.72 592.286 85.8C599.179 88.88 604.679 93.8667 608.786 100.76C612.893 107.653 614.946 116.82 614.946 128.26V196.24C614.946 207.68 612.893 216.847 608.786 223.74C604.679 230.633 599.179 235.62 592.286 238.7C585.393 241.78 577.619 243.32 568.966 243.32ZM568.966 229.9C578.793 229.9 586.419 227.187 591.846 221.76C597.419 216.333 600.206 207.827 600.206 196.24V128.26C600.206 116.673 597.419 108.167 591.846 102.74C586.419 97.3133 578.793 94.6 568.966 94.6C559.139 94.6 551.513 97.3133 546.086 102.74C540.659 108.167 537.946 116.673 537.946 128.26V196.24C537.946 207.827 540.659 216.333 546.086 221.76C551.513 227.187 559.139 229.9 568.966 229.9ZM682.868 243.54C673.481 243.54 665.414 242.147 658.668 239.36C651.921 236.427 646.714 233.127 643.048 229.46C639.528 225.647 637.768 222.42 637.768 219.78C637.768 218.607 638.061 217.36 638.648 216.04C639.381 214.72 640.261 213.693 641.288 212.96C642.314 212.08 643.341 211.64 644.368 211.64C645.834 211.64 647.301 212.593 648.768 214.5C650.381 216.26 652.434 218.387 654.928 220.88C657.568 223.227 661.014 225.353 665.268 227.26C669.521 229.02 675.094 229.9 681.988 229.9C688.881 229.9 694.748 228.8 699.588 226.6C704.428 224.253 708.168 220.88 710.808 216.48C713.448 211.933 714.768 206.287 714.768 199.54C714.768 192.5 713.448 186.853 710.808 182.6C708.168 178.347 704.648 174.827 700.248 172.04C695.994 169.253 691.301 166.907 686.168 165C681.034 163.093 675.828 161.113 670.548 159.06C665.414 157.007 660.648 154.513 656.248 151.58C651.848 148.5 648.328 144.54 645.688 139.7C643.048 134.713 641.728 128.407 641.728 120.78C641.728 112.86 643.194 106.333 646.128 101.2C649.061 95.92 652.801 91.8133 657.348 88.88C662.041 85.9467 667.101 83.8933 672.528 82.72C677.954 81.4 683.234 80.74 688.368 80.74C692.474 80.74 696.654 81.1067 700.908 81.84C705.308 82.4267 709.341 83.3067 713.008 84.48C716.674 85.6533 719.608 87.12 721.808 88.88C724.154 90.4933 725.328 92.3267 725.328 94.38C725.328 95.26 725.034 96.36 724.448 97.68C724.008 98.8533 723.348 99.9533 722.468 100.98C721.588 102.007 720.414 102.52 718.948 102.52C717.628 102.52 715.794 101.86 713.448 100.54C711.101 99.0733 707.874 97.68 703.768 96.36C699.808 94.8933 694.601 94.16 688.148 94.16C682.868 94.16 677.734 94.8933 672.748 96.36C667.908 97.8267 663.948 100.467 660.868 104.28C657.788 107.947 656.248 113.007 656.248 119.46C656.248 125.327 657.568 130.093 660.208 133.76C662.994 137.28 666.514 140.14 670.768 142.34C675.168 144.54 679.934 146.593 685.068 148.5C690.201 150.26 695.334 152.313 700.468 154.66C705.748 156.86 710.514 159.72 714.768 163.24C719.168 166.613 722.688 171.087 725.328 176.66C727.968 182.233 729.288 189.42 729.288 198.22C729.288 208.633 727.308 217.213 723.348 223.96C719.388 230.56 713.888 235.473 706.848 238.7C699.954 241.927 691.961 243.54 682.868 243.54ZM762.539 242C760.632 242 758.945 241.56 757.479 240.68C756.012 239.653 755.279 238.187 755.279 236.28V86.68C755.279 85.2133 755.792 83.9667 756.819 82.94C757.992 81.9133 759.532 81.3267 761.439 81.18H801.919C810.425 81.18 818.125 82.72 825.019 85.8C831.912 88.88 837.339 93.8667 841.299 100.76C845.259 107.507 847.239 116.527 847.239 127.82V130.02C847.239 141.46 845.185 150.627 841.079 157.52C837.119 164.267 831.619 169.253 824.579 172.48C817.685 175.56 809.985 177.1 801.479 177.1H769.799V236.28C769.799 238.187 768.992 239.653 767.379 240.68C765.912 241.56 764.299 242 762.539 242ZM769.799 164.34H801.479C811.305 164.34 818.932 161.627 824.359 156.2C829.932 150.627 832.719 142.12 832.719 130.68V128.26C832.719 116.673 829.932 108.167 824.359 102.74C818.932 97.3133 811.305 94.6 801.479 94.6H769.799V164.34ZM877.894 242C876.281 242 874.741 241.56 873.274 240.68C871.954 239.653 871.294 238.187 871.294 236.28V86.9C871.294 84.9933 871.954 83.6 873.274 82.72C874.741 81.6933 876.281 81.18 877.894 81.18H956.214C958.121 81.18 959.514 81.9133 960.394 83.38C961.274 84.7 961.714 86.1667 961.714 87.78C961.714 89.54 961.201 91.1533 960.174 92.62C959.294 93.94 957.974 94.6 956.214 94.6H885.814V155.1H920.354C922.114 155.1 923.434 155.76 924.314 157.08C925.341 158.4 925.854 159.94 925.854 161.7C925.854 163.167 925.414 164.56 924.534 165.88C923.654 167.2 922.261 167.86 920.354 167.86H885.814V228.58H956.214C957.974 228.58 959.294 229.24 960.174 230.56C961.201 231.88 961.714 233.493 961.714 235.4C961.714 237.013 961.274 238.553 960.394 240.02C959.514 241.34 958.121 242 956.214 242H877.894ZM1024.01 243.32C1015.79 243.32 1008.17 241.78 1001.13 238.7C994.085 235.62 988.512 230.633 984.405 223.74C980.298 216.847 978.245 207.68 978.245 196.24V128.26C978.245 116.82 980.372 107.653 984.625 100.76C988.878 93.8667 994.452 88.88 1001.35 85.8C1008.39 82.72 1016.09 81.18 1024.45 81.18C1034.13 81.18 1042.34 82.8667 1049.09 86.24C1055.83 89.6133 1060.97 94.0867 1064.49 99.66C1068.15 105.233 1069.99 111.393 1069.99 118.14C1069.99 121.66 1069.33 124.007 1068.01 125.18C1066.83 126.207 1065.07 126.72 1062.73 126.72C1060.09 126.72 1058.18 126.207 1057.01 125.18C1055.98 124.007 1055.39 122.687 1055.25 121.22C1055.25 118.873 1054.81 116.233 1053.93 113.3C1053.19 110.22 1051.73 107.287 1049.53 104.5C1047.47 101.567 1044.39 99.22 1040.29 97.46C1036.33 95.5533 1031.12 94.6 1024.67 94.6C1014.4 94.6 1006.55 97.3867 1001.13 102.96C995.698 108.387 992.985 116.82 992.985 128.26V196.24C992.985 207.827 995.698 216.333 1001.13 221.76C1006.7 227.187 1014.77 229.9 1025.33 229.9C1031.93 229.9 1037.13 229.02 1040.95 227.26C1044.76 225.353 1047.62 223.08 1049.53 220.44C1051.43 217.653 1052.75 214.72 1053.49 211.64C1054.37 208.413 1054.95 205.48 1055.25 202.84C1055.54 200.933 1056.2 199.54 1057.23 198.66C1058.4 197.633 1060.16 197.12 1062.51 197.12C1065 197.12 1066.83 197.78 1068.01 199.1C1069.33 200.273 1069.99 202.62 1069.99 206.14C1069.99 212.74 1068.15 218.9 1064.49 224.62C1060.82 230.193 1055.54 234.74 1048.65 238.26C1041.9 241.633 1033.69 243.32 1024.01 243.32ZM1131.45 242C1129.54 242 1127.86 241.56 1126.39 240.68C1124.92 239.653 1124.19 238.187 1124.19 236.28V94.82H1087.23C1085.47 94.82 1084.08 94.16 1083.05 92.84C1082.02 91.3733 1081.51 89.76 1081.51 88C1081.51 86.24 1082.02 84.7 1083.05 83.38C1084.08 81.9133 1085.47 81.18 1087.23 81.18H1175.45C1177.36 81.18 1178.75 81.9133 1179.63 83.38C1180.51 84.7 1180.95 86.1667 1180.95 87.78C1180.95 89.54 1180.51 91.1533 1179.63 92.62C1178.75 94.0867 1177.36 94.82 1175.45 94.82H1138.71V236.28C1138.71 238.187 1137.9 239.653 1136.29 240.68C1134.82 241.56 1133.21 242 1131.45 242Z" fill="black"/>
<path d="M1216.62 269.776C1213.8 269.776 1211.45 269.136 1209.58 267.856C1207.78 266.576 1206.89 265.168 1206.89 263.632V187.088C1206.89 185.296 1207.78 183.845 1209.58 182.736C1211.45 181.627 1213.71 181.072 1216.36 181.072C1219.01 181.072 1221.18 181.627 1222.89 182.736C1224.59 183.845 1225.45 185.296 1225.45 187.088V190.032C1226.9 187.557 1229.12 185.339 1232.1 183.376C1235.18 181.328 1238.72 180.304 1242.73 180.304C1247.08 180.304 1250.96 181.541 1254.38 184.016C1257.87 186.405 1260.61 189.648 1262.57 193.744C1264.62 197.755 1265.64 202.235 1265.64 207.184V216.144C1265.64 220.837 1264.62 225.275 1262.57 229.456C1260.52 233.552 1257.79 236.88 1254.38 239.44C1251.05 242 1247.38 243.28 1243.37 243.28C1239.61 243.28 1236.2 242.256 1233.13 240.208C1230.06 238.075 1227.92 235.685 1226.73 233.04V263.632C1226.73 265.168 1225.75 266.576 1223.78 267.856C1221.82 269.136 1219.43 269.776 1216.62 269.776ZM1236.33 226C1238.03 226 1239.57 225.531 1240.94 224.592C1242.39 223.653 1243.54 222.416 1244.39 220.88C1245.33 219.344 1245.8 217.765 1245.8 216.144V207.184C1245.8 205.563 1245.37 204.027 1244.52 202.576C1243.67 201.125 1242.47 199.931 1240.94 198.992C1239.49 198.053 1237.86 197.584 1236.07 197.584C1234.54 197.584 1233.04 197.968 1231.59 198.736C1230.23 199.504 1229.07 200.613 1228.14 202.064C1227.2 203.429 1226.73 205.136 1226.73 207.184V217.808C1226.73 218.491 1227.11 219.515 1227.88 220.88C1228.73 222.16 1229.89 223.355 1231.34 224.464C1232.79 225.488 1234.45 226 1236.33 226ZM1297.54 242C1294.72 242 1292.38 241.36 1290.5 240.08C1288.71 238.8 1287.81 237.392 1287.81 235.856V187.088C1287.81 185.296 1288.71 183.845 1290.5 182.736C1292.38 181.627 1294.72 181.072 1297.54 181.072C1300.01 181.072 1302.1 181.627 1303.81 182.736C1305.52 183.845 1306.37 185.296 1306.37 187.088V191.824C1307.22 189.947 1308.42 188.155 1309.95 186.448C1311.58 184.656 1313.37 183.205 1315.33 182.096C1317.38 180.901 1319.47 180.304 1321.6 180.304H1325.31C1327.19 180.304 1328.81 181.157 1330.18 182.864C1331.63 184.571 1332.35 186.576 1332.35 188.88C1332.35 191.269 1331.63 193.317 1330.18 195.024C1328.81 196.731 1327.19 197.584 1325.31 197.584H1321.6C1319.3 197.584 1317.08 198.395 1314.95 200.016C1312.81 201.552 1311.06 203.728 1309.7 206.544C1308.33 209.36 1307.65 212.731 1307.65 216.656V235.856C1307.65 237.392 1306.67 238.8 1304.71 240.08C1302.74 241.36 1300.35 242 1297.54 242ZM1376.74 243.28C1371.53 243.28 1366.71 242.043 1362.27 239.568C1357.92 237.008 1354.38 233.68 1351.65 229.584C1349 225.403 1347.68 220.923 1347.68 216.144V207.184C1347.68 202.405 1348.96 197.968 1351.52 193.872C1354.17 189.776 1357.71 186.491 1362.15 184.016C1366.58 181.541 1371.45 180.304 1376.74 180.304C1381.94 180.304 1386.76 181.541 1391.2 184.016C1395.64 186.405 1399.18 189.648 1401.83 193.744C1404.56 197.755 1405.92 202.235 1405.92 207.184V216.144C1405.92 220.837 1404.56 225.275 1401.83 229.456C1399.18 233.552 1395.64 236.88 1391.2 239.44C1386.76 242 1381.94 243.28 1376.74 243.28ZM1376.74 226C1378.44 226 1379.98 225.531 1381.35 224.592C1382.8 223.653 1383.95 222.459 1384.8 221.008C1385.65 219.472 1386.08 217.851 1386.08 216.144V207.184C1386.08 205.563 1385.65 204.027 1384.8 202.576C1383.95 201.125 1382.8 199.931 1381.35 198.992C1379.98 198.053 1378.44 197.584 1376.74 197.584C1375.03 197.584 1373.45 198.053 1372 198.992C1370.64 199.931 1369.53 201.125 1368.67 202.576C1367.91 204.027 1367.52 205.563 1367.52 207.184V216.144C1367.52 217.851 1367.91 219.472 1368.67 221.008C1369.53 222.459 1370.64 223.653 1372 224.592C1373.45 225.531 1375.03 226 1376.74 226Z" fill="black"/>
<defs>
<linearGradient id="paint0_linear_6_2" x1="283.917" y1="37.0765" x2="18.9167" y2="37.0765" gradientUnits="userSpaceOnUse">
<stop stop-color="#E00307"/>
<stop offset="0.5" stop-color="#9900D5"/>
<stop offset="1" stop-color="#00D0FF"/>
</linearGradient>
<linearGradient id="paint1_linear_6_2" x1="33" y1="161.997" x2="256" y2="162.003" gradientUnits="userSpaceOnUse">
<stop stop-color="#00D0FF"/>
<stop offset="0.5" stop-color="#9900D5"/>
<stop offset="1" stop-color="#E00307"/>
</linearGradient>
</defs>
</svg>
